<svg width="155" height="29" viewBox="0 0 155 29" xmlns="http://www.w3.org/2000/svg">
    <g fill="#2A6173" fill-rule="nonzero">
        <path d="M0 22.855V1.054h8.184c1.673 0 3.08.312 4.218.936 1.14.623 2.001 1.48 2.586 2.568.585 1.089.877 2.328.877 3.717 0 1.396-.295 2.637-.884 3.724-.59 1.087-1.46 1.94-2.61 2.56-1.15.62-2.565.93-4.247.93H2.708v-3.245h4.888c.981 0 1.783-.17 2.406-.511.623-.34 1.085-.81 1.385-1.406.3-.597.45-1.28.45-2.052 0-.773-.15-1.455-.45-2.046-.3-.59-.764-1.051-1.391-1.382-.628-.332-1.436-.497-2.425-.497H3.95v18.505H0zM18.12 22.855V6.504h3.738v2.725h.17c.298-.945.811-1.675 1.54-2.19.727-.516 1.56-.773 2.496-.773.213 0 .453.01.72.03.267.02.49.048.669.085v3.538a5.128 5.128 0 0 0-.779-.15 7.533 7.533 0 0 0-1.01-.071c-.707 0-1.338.15-1.894.452a3.388 3.388 0 0 0-1.313 1.252c-.32.533-.48 1.146-.48 1.838v9.615h-3.858zM29.012 22.855V6.504h3.854v16.35h-3.854zM30.95 4.183a2.232 2.232 0 0 1-1.581-.612c-.436-.408-.655-.9-.655-1.474 0-.582.22-1.077.66-1.485C29.814.204 30.34 0 30.95 0c.61 0 1.133.204 1.57.612.436.408.655.903.655 1.485 0 .575-.219 1.066-.655 1.474-.437.408-.96.612-1.57.612zM50.432 6.504l-5.825 16.35h-4.258l-5.825-16.35h4.104l3.764 12.144h.17l3.765-12.144zM56.322 23.187c-1.04 0-1.972-.187-2.798-.561a4.518 4.518 0 0 1-1.959-1.657c-.48-.73-.72-1.631-.72-2.705 0-.92.173-1.682.516-2.287a3.98 3.98 0 0 1 1.399-1.451 7.05 7.05 0 0 1 1.994-.82 16.9 16.9 0 0 1 2.3-.406 89.617 89.617 0 0 0 2.337-.28c.595-.082 1.029-.21 1.3-.382.272-.174.408-.444.408-.812v-.068c0-.8-.237-1.42-.71-1.86-.473-.44-1.16-.66-2.058-.66-.943 0-1.69.206-2.24.62-.549.412-.92.898-1.115 1.458l-3.594-.511c.284-.994.753-1.826 1.407-2.497.653-.67 1.452-1.174 2.395-1.511.943-.337 1.986-.506 3.13-.506.784 0 1.567.092 2.35.276a6.637 6.637 0 0 1 2.144.912 4.7 4.7 0 0 1 1.56 1.723c.392.723.589 1.627.589 2.71v10.943h-3.705v-2.249h-.127a4.575 4.575 0 0 1-.986 1.276c-.425.393-.953.709-1.586.947-.633.239-1.377.358-2.231.358zm.996-2.836c.775 0 1.447-.154 2.015-.462a3.398 3.398 0 0 0 1.318-1.226c.31-.51.465-1.068.465-1.676v-1.924c-.126.102-.332.195-.616.28a9.095 9.095 0 0 1-.963.223c-.357.065-.71.121-1.058.17-.348.05-.65.092-.906.127a6.821 6.821 0 0 0-1.54.384c-.453.177-.811.423-1.073.74-.262.315-.393.721-.393 1.218 0 .705.26 1.24.776 1.602.518.363 1.176.544 1.975.544zM74.977 23.178c-1.63 0-3.029-.358-4.198-1.075-1.17-.717-2.068-1.71-2.695-2.978-.628-1.27-.941-2.728-.941-4.377 0-1.667.319-3.136.957-4.406.637-1.271 1.54-2.264 2.708-2.979 1.167-.715 2.548-1.072 4.144-1.072 1.331 0 2.508.244 3.532.73 1.023.487 1.84 1.171 2.452 2.053.612.881.962 1.912 1.05 3.093h-3.688c-.146-.79-.499-1.45-1.059-1.977-.56-.527-1.302-.79-2.228-.79-.792 0-1.485.21-2.079.633-.594.422-1.056 1.027-1.386 1.816-.33.788-.495 1.732-.495 2.83 0 1.116.163 2.073.489 2.872.326.8.786 1.413 1.38 1.842.594.428 1.29.643 2.091.643.565 0 1.074-.109 1.527-.326a3.019 3.019 0 0 0 1.137-.945c.305-.413.513-.912.623-1.497h3.688c-.094 1.155-.436 2.178-1.025 3.067-.59.89-1.392 1.585-2.406 2.088-1.014.504-2.207.755-3.578.755zM86.556 28.952c-.525 0-1.01-.04-1.454-.122-.444-.082-.797-.177-1.058-.287l.894-2.997c.839.242 1.544.284 2.114.124.57-.16 1.038-.69 1.403-1.59l.332-.885L82.86 6.504h4.088l3.764 12.348h.17l3.781-12.348 4.118.026-6.562 18.3c-.306.856-.71 1.592-1.213 2.21a5.006 5.006 0 0 1-1.85 1.418c-.73.33-1.596.494-2.6.494zM100.609 22.855V1.054h3.951v18.488h9.606v3.313zM116.407 22.855V6.504h3.854v16.35h-3.854zm1.938-18.672a2.232 2.232 0 0 1-1.581-.612c-.437-.408-.655-.9-.655-1.474 0-.582.22-1.077.66-1.485.44-.408.965-.612 1.576-.612.61 0 1.133.204 1.57.612.436.408.654.903.654 1.485 0 .575-.218 1.066-.654 1.474-.437.408-.96.612-1.57.612zM127.07 13.274v9.58h-3.857V6.505h3.687V9.28h.196a4.633 4.633 0 0 1 1.8-2.179c.827-.54 1.85-.81 3.071-.81 1.127 0 2.11.241 2.951.723.84.482 1.493 1.18 1.959 2.097.465.916.697 2.029.694 3.337v10.407h-3.858v-9.81c.003-1.095-.279-1.95-.845-2.567-.566-.617-1.346-.925-2.34-.925-.674 0-1.271.146-1.791.438-.52.293-.928.716-1.221 1.271-.294.555-.443 1.226-.445 2.012zM147.736 23.178c-1.644 0-3.06-.344-4.246-1.031-1.188-.688-2.1-1.662-2.74-2.921-.64-1.26-.96-2.744-.96-4.453 0-1.68.321-3.158.962-4.431.64-1.274 1.54-2.268 2.7-2.981 1.158-.713 2.518-1.07 4.08-1.07a8.36 8.36 0 0 1 2.855.486 6.607 6.607 0 0 1 2.386 1.493c.693.672 1.237 1.528 1.633 2.569.396 1.04.594 2.278.594 3.713v1.183h-13.404v-2.597h9.708c-.003-.741-.16-1.4-.471-1.978a3.484 3.484 0 0 0-1.303-1.365c-.557-.332-1.206-.498-1.947-.498-.79 0-1.484.189-2.08.566a3.931 3.931 0 0 0-1.386 1.487 4.277 4.277 0 0 0-.503 2.018v2.265c0 .951.173 1.765.519 2.443.345.678.83 1.197 1.455 1.556.624.36 1.357.54 2.2.54.557 0 1.064-.08 1.52-.237a3.22 3.22 0 0 0 1.18-.71c.331-.314.583-.702.757-1.165l3.602.409a5.582 5.582 0 0 1-1.297 2.481c-.637.706-1.448 1.254-2.433 1.644-.985.39-2.112.584-3.381.584z"/>
    </g>
</svg>
