<svg width="350" height="350" viewBox="0 0 350 350" fill="none" xmlns="http://www.w3.org/2000/svg">
<g filter="url(#filter0_i_6654_924)">
<path d="M289.944 61.2384C284.844 59.3614 279.31 58.3333 273.527 58.3333H123.813C98.3712 58.3333 77.7467 78.2317 77.7467 102.778V247.222C77.7467 271.768 98.3712 291.667 123.813 291.667H273.527C298.969 291.667 319.593 271.768 319.593 247.222V154.412L290.802 182.19V247.222C290.802 256.427 283.068 263.889 273.527 263.889H123.813C114.272 263.889 106.538 256.427 106.538 247.222V102.778C106.538 93.573 114.272 86.1111 123.813 86.1111H264.163L289.944 61.2384Z" fill="#5B9D46"/>
<path fill-rule="evenodd" clip-rule="evenodd" d="M330.556 123.537L197.952 251.473L121.132 177.357L163.206 136.764L197.952 170.287L288.481 82.9443L330.556 123.537Z" fill="#5B9D46"/>
<path d="M19.4445 124.769C19.4445 116.843 26.1044 110.417 34.3199 110.417H49.1954C57.4109 110.417 64.0709 116.843 64.0709 124.769C64.0709 132.695 57.4109 139.121 49.1954 139.121H34.3199C26.1044 139.121 19.4445 132.695 19.4445 124.769Z" fill="#5B9D46"/>
<path d="M19.4459 182.175C19.4459 174.249 26.1058 167.823 34.3214 167.823H49.1968C57.4123 167.823 64.0723 174.249 64.0723 182.175C64.0723 190.101 57.4123 196.527 49.1968 196.527H34.3213C26.1058 196.527 19.4459 190.101 19.4459 182.175Z" fill="#5B9D46"/>
<path d="M34.3214 225.231C26.1058 225.231 19.4459 231.657 19.4459 239.583C19.4459 247.51 26.1058 253.935 34.3213 253.935H49.1968C57.4123 253.935 64.0723 247.51 64.0723 239.583C64.0723 231.657 57.4123 225.231 49.1968 225.231H34.3214Z" fill="#5B9D46"/>
</g>
<defs>
<filter id="filter0_i_6654_924" x="19.4445" y="58.3333" width="311.111" height="234.694" filterUnits="userSpaceOnUse" color-interpolation-filters="sRGB">
<feFlood flood-opacity="0" result="BackgroundImageFix"/>
<feBlend mode="normal" in="SourceGraphic" in2="BackgroundImageFix" result="shape"/>
<feColorMatrix in="SourceAlpha" type="matrix" values="0 0 0 0 0 0 0 0 0 0 0 0 0 0 0 0 0 0 127 0" result="hardAlpha"/>
<feOffset dy="1.36077"/>
<feGaussianBlur stdDeviation="1.36077"/>
<feComposite in2="hardAlpha" operator="arithmetic" k2="-1" k3="1"/>
<feColorMatrix type="matrix" values="0 0 0 0 0 0 0 0 0 0 0 0 0 0 0 0 0 0 0.25 0"/>
<feBlend mode="overlay" in2="shape" result="effect1_innerShadow_6654_924"/>
</filter>
</defs>
</svg>
