<svg width="70" height="21" viewBox="0 0 70 21" fill="none" xmlns="http://www.w3.org/2000/svg">
<path d="M2.9071 3.15806H6.24412C6.56485 3.15806 6.79005 3.09674 6.91971 2.97409C7.05619 2.84464 7.12443 2.68793 7.12443 2.50396V2.49374C7.12443 2.31659 7.05961 2.16669 6.92995 2.04405C6.80029 1.91459 6.57168 1.84987 6.24412 1.84987H2.9071V3.15806ZM2.9071 7.60387H0V0H6.91971C8.03205 0 8.84413 0.170337 9.35594 0.511013C9.86775 0.851687 10.1237 1.33204 10.1237 1.95207V2.06449C10.1237 2.34384 10.0691 2.58232 9.95988 2.77991C9.85752 2.9775 9.72786 3.14443 9.5709 3.2807C9.41395 3.41016 9.24675 3.51577 9.06932 3.59753C8.8919 3.67248 8.73153 3.72699 8.58822 3.76105C9.05909 3.87007 9.43783 4.07788 9.72444 4.38449C10.0111 4.68428 10.1544 5.07947 10.1544 5.57004V6.69427C10.1544 6.95999 10.168 7.15418 10.1953 7.27682C10.2294 7.39265 10.2636 7.48463 10.2977 7.55277V7.60387H7.32916C7.29504 7.56299 7.27116 7.51529 7.25751 7.46078C7.24386 7.39946 7.23703 7.31429 7.23703 7.20528V6.31612C7.23703 5.88005 7.12102 5.553 6.889 5.33497C6.6638 5.11013 6.26459 4.9977 5.69136 4.9977H2.9071V7.60387Z" fill="#2381F9"/>
<path d="M19.3804 0V1.86009H13.8221V2.81057H19.2678V4.66044H13.8221V5.7029H19.4623V7.60387H10.956V0H19.3804Z" fill="#2381F9"/>
<path d="M25.3383 1.86009L24.0895 4.47647H26.6179L25.3383 1.86009ZM27.5494 6.37744H23.199L22.6155 7.60387H19.6674L23.4344 0H27.3446L31.3265 7.60387H28.1431L27.5494 6.37744Z" fill="#2381F9"/>
<path d="M34.5655 0V5.42695H39.8474V7.60387H31.6584V0H34.5655Z" fill="#2381F9"/>
<path d="M41.4864 2.07471H38.2005V0H47.6793V2.07471H44.3934V7.60387H41.4864V2.07471Z" fill="#2381F9"/>
<path d="M51.9524 4.7422L47.7862 0H51.2665L53.4878 2.6266L55.75 0H58.9335L54.8595 4.76264V7.60387H51.9524V4.7422Z" fill="#2381F9"/>
<path d="M20.6727 20.0113C19.8947 20.0113 19.2191 19.9499 18.6459 19.8273C18.0795 19.7046 17.595 19.5445 17.1924 19.3469C16.7966 19.1425 16.4724 18.9075 16.2199 18.6417C15.9742 18.376 15.7798 18.1035 15.6364 17.8241C15.5 17.538 15.4078 17.2552 15.3601 16.9758C15.3123 16.6897 15.2884 16.4274 15.2884 16.1889V15.8925C15.2884 15.654 15.3089 15.3951 15.3498 15.1158C15.3976 14.8296 15.4897 14.5468 15.6262 14.2675C15.7627 13.9881 15.9538 13.719 16.1994 13.4601C16.4451 13.2012 16.7658 12.9729 17.1616 12.7753C17.5643 12.5777 18.0522 12.421 18.6254 12.3052C19.1987 12.1825 19.8811 12.1212 20.6727 12.1212H21.0719C21.843 12.1212 22.5084 12.1757 23.068 12.2847C23.6344 12.3869 24.1121 12.5266 24.501 12.7038C24.8968 12.8741 25.2142 13.0717 25.453 13.2965C25.6987 13.5146 25.8898 13.7394 26.0262 13.9711C26.1627 14.1959 26.2549 14.4174 26.3026 14.6354C26.3504 14.8466 26.3743 15.034 26.3743 15.1975V15.3304H23.3546C23.3409 15.2827 23.3068 15.1941 23.2522 15.0647C23.1976 14.9352 23.0816 14.8057 22.9042 14.6763C22.7336 14.54 22.4845 14.4208 22.1569 14.3186C21.8362 14.2164 21.3995 14.1653 20.8467 14.1653C20.3212 14.1653 19.8913 14.2198 19.5569 14.3288C19.2294 14.431 18.9701 14.5673 18.779 14.7376C18.5947 14.9079 18.4685 15.0987 18.4002 15.3099C18.332 15.5212 18.2979 15.7324 18.2979 15.9436V16.0662C18.2979 16.2706 18.3354 16.4853 18.4105 16.7101C18.4855 16.9281 18.6186 17.1326 18.8097 17.3233C19.0008 17.5073 19.2601 17.6606 19.5876 17.7832C19.922 17.8991 20.3451 17.957 20.8569 17.957C21.2323 17.957 21.553 17.9297 21.8191 17.8752C22.0853 17.8207 22.3105 17.7526 22.4947 17.6708C22.679 17.5891 22.8257 17.5005 22.9349 17.4051C23.0441 17.3029 23.1294 17.2075 23.1908 17.1189C23.2522 17.0235 23.2932 16.9384 23.3136 16.8634C23.3409 16.7885 23.358 16.7374 23.3648 16.7101H26.3743V16.8736C26.3743 17.0372 26.3504 17.2313 26.3026 17.4562C26.2549 17.6742 26.1593 17.8991 26.016 18.1307C25.8795 18.3624 25.6884 18.5906 25.4428 18.8155C25.1971 19.0403 24.8764 19.2413 24.4806 19.4185C24.0916 19.5956 23.6173 19.7387 23.0577 19.8477C22.4981 19.9567 21.8362 20.0113 21.0719 20.0113H20.6727Z" fill="#2381F9"/>
<path d="M29.9772 12.2643V17.6913H35.2591V19.8682H27.0701V12.2643H29.9772Z" fill="#2381F9"/>
<path d="M41.5299 12.1212C42.3488 12.1212 43.0551 12.1825 43.6488 12.3052C44.2425 12.421 44.7441 12.5811 45.1536 12.7855C45.563 12.9831 45.894 13.2114 46.1465 13.4703C46.399 13.7292 46.5935 13.9983 46.73 14.2777C46.8664 14.557 46.9586 14.8364 47.0063 15.1158C47.0541 15.3951 47.078 15.654 47.078 15.8925V16.1991C47.078 16.4376 47.0541 16.6965 47.0063 16.9758C46.9654 17.2552 46.8733 17.538 46.73 17.8241C46.5935 18.1035 46.399 18.376 46.1465 18.6417C45.9008 18.9007 45.5698 19.1323 45.1536 19.3367C44.7441 19.5411 44.2425 19.7046 43.6488 19.8273C43.0551 19.9499 42.3488 20.0113 41.5299 20.0113H41.0693C40.2504 20.0113 39.5407 19.9499 38.9402 19.8273C38.3465 19.7046 37.8449 19.5411 37.4354 19.3367C37.026 19.1323 36.695 18.9007 36.4425 18.6417C36.19 18.376 35.9955 18.1035 35.8591 17.8241C35.7226 17.538 35.6304 17.2552 35.5827 16.9758C35.5349 16.6965 35.511 16.4376 35.511 16.1991V15.8925C35.511 15.654 35.5315 15.3951 35.5724 15.1158C35.6202 14.8364 35.7123 14.557 35.8488 14.2777C35.9921 13.9983 36.19 13.7292 36.4425 13.4703C36.695 13.2114 37.026 12.9831 37.4354 12.7855C37.8449 12.5811 38.3465 12.421 38.9402 12.3052C39.5339 12.1825 40.2436 12.1212 41.0693 12.1212H41.5299ZM44.0685 15.964C44.0685 15.7596 44.0276 15.5518 43.9457 15.3406C43.8706 15.1294 43.7307 14.9386 43.526 14.7683C43.3213 14.5911 43.0381 14.448 42.6764 14.339C42.3215 14.2232 41.8609 14.1653 41.2945 14.1653C40.7213 14.1653 40.2538 14.2232 39.8921 14.339C39.5305 14.448 39.2472 14.5911 39.0425 14.7683C38.8446 14.9386 38.7081 15.1294 38.6331 15.3406C38.558 15.5518 38.5205 15.7596 38.5205 15.964V16.0867C38.5205 16.2843 38.558 16.4955 38.6331 16.7203C38.715 16.9384 38.8583 17.1394 39.063 17.3233C39.2677 17.5073 39.5475 17.6606 39.9024 17.7832C40.2641 17.8991 40.7281 17.957 41.2945 17.957C41.8541 17.957 42.3147 17.8991 42.6764 17.7832C43.0381 17.6674 43.3213 17.5209 43.526 17.3438C43.7307 17.1598 43.8706 16.9588 43.9457 16.7408C44.0276 16.5227 44.0685 16.3115 44.0685 16.1071V15.964Z" fill="#2381F9"/>
<path d="M47.7206 12.2643H50.638V15.6676C50.638 15.8993 50.6687 16.1378 50.7301 16.3831C50.7915 16.6215 50.9075 16.8396 51.0781 17.0372C51.2556 17.2348 51.4944 17.3983 51.7947 17.5277C52.0949 17.6504 52.4873 17.7117 52.9718 17.7117C53.4427 17.7117 53.8283 17.6504 54.1285 17.5277C54.4356 17.3983 54.6745 17.2348 54.8451 17.0372C55.0157 16.8396 55.1317 16.6215 55.1931 16.3831C55.2613 16.1378 55.2955 15.8993 55.2955 15.6676V12.2643H58.2026V15.8925C58.2026 16.1378 58.1787 16.4103 58.1309 16.7101C58.0831 17.0031 57.991 17.3029 57.8545 17.6095C57.7249 17.9161 57.544 18.2125 57.312 18.4987C57.08 18.778 56.7763 19.0301 56.401 19.255C56.0325 19.4798 55.5821 19.6604 55.0498 19.7966C54.5243 19.9261 53.9033 19.9908 53.1868 19.9908H52.7773C52.0403 19.9908 51.4023 19.9261 50.8632 19.7966C50.3241 19.6604 49.8668 19.4798 49.4915 19.255C49.123 19.0301 48.8227 18.778 48.5907 18.4987C48.3587 18.2125 48.1779 17.9161 48.0482 17.6095C47.9185 17.3029 47.8298 17.0031 47.782 16.7101C47.7411 16.4103 47.7206 16.1378 47.7206 15.8925V12.2643Z" fill="#2381F9"/>
<path d="M59.0984 12.2643H64.5031C65.6018 12.2643 66.506 12.3699 67.2157 12.5811C67.9255 12.7855 68.485 13.0581 68.8945 13.3988C69.3108 13.7326 69.5974 14.1142 69.7543 14.5434C69.9181 14.9727 70 15.4121 70 15.8618V16.1684C70 16.4546 69.9693 16.7476 69.9079 17.0474C69.8465 17.3404 69.7373 17.6231 69.5803 17.8957C69.4302 18.1682 69.222 18.4271 68.9559 18.6724C68.6898 18.9109 68.352 19.1187 67.9425 19.2958C67.5399 19.473 67.0554 19.6127 66.489 19.7149C65.9294 19.8171 65.2709 19.8682 64.5134 19.8682H59.0984V12.2643ZM62.0055 17.8548H64.1653C64.8 17.8548 65.3016 17.7935 65.6701 17.6708C66.0454 17.5482 66.3286 17.3983 66.5197 17.2211C66.7176 17.0372 66.8438 16.843 66.8984 16.6386C66.953 16.4274 66.9803 16.24 66.9803 16.0765V16.0151C66.9803 15.8516 66.953 15.6676 66.8984 15.4632C66.8438 15.2588 66.7176 15.0681 66.5197 14.8909C66.3286 14.7069 66.0454 14.557 65.6701 14.4412C65.3016 14.3186 64.8 14.2573 64.1653 14.2573H62.0055V17.8548Z" fill="#2381F9"/>
</svg>
