<?xml version="1.0" encoding="UTF-8"?> <svg xmlns="http://www.w3.org/2000/svg" width="1224" height="835" viewBox="0 0 1224 835" fill="none"> <path fill-rule="evenodd" clip-rule="evenodd" d="M706.097 7.73119C719.445 32.2159 730.366 57.3665 738.939 82.9214C784.767 95.1317 825.69 125.402 850.18 170.318C897.553 257.223 865.496 366.12 778.597 413.494C758.611 424.384 737.466 431.078 716.174 433.871C703.067 460.94 687.304 486.825 669.02 511.089C718.033 515.712 768.894 506.273 815.365 480.943C939.511 413.265 985.306 257.697 917.628 133.551C872.754 51.243 789.258 3.37211 701.891 0.181032C703.318 2.67677 704.714 5.19311 706.097 7.73119Z" fill="#869AA4"></path> <path fill-rule="evenodd" clip-rule="evenodd" d="M316.399 0.0496277H394.722V512.18H316.399V0.0496277Z" fill="#C41F48"></path> <path fill-rule="evenodd" clip-rule="evenodd" d="M570.236 31.2868C446.088 98.9649 400.294 254.531 467.968 378.679C507.443 451.081 576.801 496.833 652.394 508.976C668.255 485.637 681.908 460.991 693.228 435.385C629.637 435.474 567.991 401.653 535.42 341.907C488.043 255.007 520.104 146.109 607.003 98.7356C636.912 82.4335 669.422 75.5364 701.14 77.0434C694.077 59.0735 685.822 41.3447 676.34 23.9528C672.207 16.3635 667.89 8.94042 663.4 1.67926C631.637 5.33756 600.03 15.0434 570.236 31.2868Z" fill="#C41F48"></path> <path d="M42.1863 831.463H-0.000976562V620.531H42.1863V704.901H84.3693V680.294C84.3693 638.106 105.463 617.012 147.651 617.012H232.025C274.212 617.012 295.306 638.106 295.306 680.294V771.697C295.306 813.884 274.212 834.978 232.025 834.978H147.651C105.463 834.978 84.3693 813.884 84.3693 771.697V747.088H42.1863V831.463ZM253.118 771.697V680.294C253.118 666.232 246.085 659.2 232.025 659.2H147.651C133.589 659.2 126.561 666.232 126.561 680.294V771.697C126.561 785.762 133.589 792.791 147.651 792.791H232.025C246.085 792.791 253.118 785.762 253.118 771.697Z" fill="#C41F48"></path> <path d="M527.336 683.812V704.901C527.336 747.088 506.243 768.182 464.055 768.182H358.587V831.463H316.399V620.531H464.055C506.243 620.531 527.336 641.625 527.336 683.812ZM485.145 683.812C485.145 669.747 478.12 662.718 464.055 662.718H358.587V725.995H464.055C478.12 725.995 485.145 718.966 485.145 704.901V683.812ZM759.362 831.463H717.174V789.276H590.617V831.463H548.43V680.294C548.43 638.106 569.523 617.012 611.71 617.012H696.08C738.269 617.012 759.362 638.106 759.362 680.294V831.463ZM717.174 747.088V680.294C717.174 666.232 710.146 659.2 696.08 659.2H611.71C597.645 659.2 590.617 666.232 590.617 680.294V747.088H717.174ZM991.391 620.531H949.204L822.647 766.777V620.531H780.46V831.463H822.647L949.204 685.217V831.463H991.391V620.531ZM1223.42 662.718H1139.04V831.463H1096.86V662.718H1012.48V620.531H1223.42V662.718Z" fill="#C41F48"></path> <path fill-rule="evenodd" clip-rule="evenodd" d="M846.884 478.265C866.289 483.965 902.42 430.255 890.625 421.826C1001.1 503.225 1012.02 584.421 853.705 629.778C853.306 627.869 852.708 626.006 851.905 624.223C941.428 575.614 919.808 529.921 846.884 478.265Z" fill="#C41F48"></path> <path fill-rule="evenodd" clip-rule="evenodd" d="M695.792 284.08L701.866 275.469L707.659 272.387C715.421 270.282 721.317 277.065 727.255 281.97C748.84 295.692 774.149 305.628 798.163 314.184C812.431 319.268 817.371 321.951 825.061 335.507C839.446 360.87 859.402 390.163 880.716 410.001C893.58 422.645 881.462 442.16 873.288 453.046C865.496 463.423 849.886 482.789 834.947 471.109L834.786 470.982L834.628 470.846C809.817 449.587 780.532 433.408 750.64 419.038C738.857 413.401 744.015 401.912 742.504 393.151C736.918 360.828 721.987 330.38 704.26 303.052C700.644 298.676 696.356 296.299 695.381 289.805C695.083 287.815 695.254 285.893 695.792 284.08Z" fill="#231F20"></path> <path fill-rule="evenodd" clip-rule="evenodd" d="M780.778 346.406C757.621 324.747 734.283 303.242 710.897 281.809C710.825 281.877 710.753 281.992 710.663 282.072C706.081 287.309 711.903 290.03 716.029 295.182C735.548 325.19 749.354 355.497 754.676 386.276C756.005 394.004 752.588 402.417 757.608 404.815C789.046 419.928 824.099 435.428 842.688 451.361C853.664 459.938 884.96 422.144 873.64 411.016C848.702 387.803 831.415 359.839 818.084 336.338C811.803 325.261 808.739 323.95 796.796 319.689C770.681 310.386 745.984 300.207 725.803 287.297C720.438 282.943 716.848 277.111 712.217 280.603C735.688 302.135 759.145 323.75 782.404 345.515C784.708 345.01 788.553 346.054 792.318 348.405C797.406 351.588 800.412 355.96 799.032 358.153C797.649 360.344 792.415 359.551 787.327 356.372C782.238 353.192 779.233 348.817 780.612 346.622C780.659 346.546 780.719 346.473 780.778 346.406Z" fill="white"></path> </svg> 