<svg width="501" height="501" viewBox="0 0 501 501" fill="none" xmlns="http://www.w3.org/2000/svg">
<path d="M0.104248 100.551C0.104248 45.3228 44.8758 0.55127 100.104 0.55127H250.104H400.104C455.333 0.55127 500.104 45.3228 500.104 100.551V250.551V400.551C500.104 455.78 455.333 500.551 400.104 500.551C400.104 500.551 308.683 500.551 250.104 500.551C191.526 500.551 100.104 500.551 100.104 500.551C44.8758 500.551 0.104248 455.78 0.104248 400.551V250.551V100.551Z" fill="#0000FF"/>
<path d="M66.4084 233.551H55.0824V146.94H94.3904C109.714 146.94 122.372 154.269 122.372 170.925C122.372 187.581 109.714 194.91 94.3904 194.91H66.4084V233.551ZM66.4084 155.602V186.248H93.7241C103.051 186.248 110.38 181.585 110.38 170.925C110.38 160.265 103.051 155.602 93.7241 155.602H66.4084ZM140.319 233.551H128.993V166.928H140.319V184.783C140.852 183.05 147.115 166.261 163.637 166.261H166.969V176.921H162.971C149.646 176.921 140.319 185.582 140.319 205.569V233.551ZM174.276 166.928H185.602V233.551H174.276V166.928ZM185.602 159.599H174.276V146.94H185.602V159.599ZM218.951 233.551L191.635 166.928H203.627L224.947 223.558L246.266 166.928H258.259L230.943 233.551H218.951ZM282.909 235.55C267.586 235.55 259.591 226.889 259.591 215.563C259.591 204.237 266.92 194.91 289.572 194.91C304.895 194.91 306.228 189.58 306.228 184.25C306.228 176.255 300.232 172.924 289.572 172.924C278.246 172.924 272.25 177.587 272.25 186.915H260.924C260.924 171.591 272.916 164.929 289.572 164.929C307.56 164.929 317.554 171.591 317.554 186.915V217.562C317.554 222.891 317.554 226.223 324.216 225.556V233.551C324.216 233.551 321.151 234.218 318.22 234.218C311.558 234.218 306.228 232.885 306.228 224.224V222.225C306.228 222.225 299.565 235.55 282.909 235.55ZM288.239 201.572C280.911 201.572 271.583 204.237 271.583 214.23C271.583 222.225 276.913 227.555 285.574 227.555C294.902 227.555 306.228 220.893 306.228 200.906V196.375C306.095 196.642 303.163 201.572 288.239 201.572ZM359.527 235.55C337.541 235.55 326.881 219.56 326.881 200.239C326.881 180.919 337.541 164.929 359.527 164.929C378.848 164.929 388.841 176.921 389.507 190.246H377.515C376.183 179.586 370.187 172.924 359.527 172.924C348.201 172.924 338.873 180.919 338.873 200.239C338.873 219.56 348.201 227.555 359.527 227.555C370.187 227.555 376.183 220.893 377.515 210.233H389.507C388.841 223.558 378.848 235.55 359.527 235.55ZM418.739 233.551L389.424 166.928H402.083L424.202 221.692L444.056 166.928H456.048L428.732 236.882C424.068 248.608 420.071 254.205 408.745 254.205C404.748 254.205 400.084 253.538 400.084 253.538V245.144C400.084 245.144 404.081 245.544 406.746 245.544C411.41 245.544 414.741 243.678 417.406 236.882L418.739 233.551ZM94.3904 346.551H55.0824V259.94H94.3904C110.38 259.94 121.706 265.937 121.706 281.926C121.706 297.916 107.049 301.247 107.049 301.247V301.913C107.049 301.913 124.371 305.245 124.371 322.567C124.371 339.889 112.379 346.551 94.3904 346.551ZM66.4084 337.89H94.3904C105.05 337.89 112.379 333.227 112.379 322.567C112.379 311.907 104.384 306.577 94.3904 306.577H66.4084V337.89ZM94.3904 268.602H66.4084V297.916H94.3904C103.718 297.916 110.38 293.252 110.38 282.592C110.38 272.599 103.718 268.602 94.3904 268.602ZM162.388 348.55C140.402 348.55 129.743 332.56 129.743 313.239C129.743 293.919 140.402 277.929 162.388 277.929C184.374 277.929 195.034 293.919 195.034 313.239C195.034 332.56 184.374 348.55 162.388 348.55ZM141.735 313.239C141.735 332.56 151.062 340.555 162.388 340.555C173.714 340.555 183.042 332.56 183.042 313.239C183.042 293.919 173.714 285.924 162.388 285.924C151.062 285.924 141.735 293.919 141.735 313.239ZM195.034 346.551L221.017 311.907L196.366 279.928H209.691L227.679 304.578L245.668 279.928H258.993L234.342 311.907L260.325 346.551H247L227.679 319.236L208.359 346.551H195.034Z" fill="white"/>
</svg>
